<?xml version="1.0" standalone="no"?><!DOCTYPE svg PUBLIC "-//W3C//DTD SVG 1.1//EN" "http://www.w3.org/Graphics/SVG/1.1/DTD/svg11.dtd"><svg class="icon" width="300px" height="300.00px" viewBox="0 0 1024 1024" version="1.1" xmlns="http://www.w3.org/2000/svg"><path fill="#2c2c2c" d="M816 128A80 80 0 0 1 896 208v608a80 80 0 0 1-80 80h-608A80 80 0 0 1 128 816v-608A80 80 0 0 1 208 128zM800 224H224v576h576V224z m-108.8 151.264l22.592 22.656a32 32 0 0 1-0.096 45.248l-206.528 205.888a80 80 0 0 1-108.8 3.84l-4.16-3.84-84.864-84.672a32 32 0 0 1-0.064-45.248l22.592-22.656a32 32 0 0 1 42.24-2.72l3.008 2.656 73.536 73.376 195.264-194.624a32 32 0 0 1 45.28 0.096z"  /></svg>