<?xml version="1.0" standalone="no"?><!DOCTYPE svg PUBLIC "-//W3C//DTD SVG 1.1//EN" "http://www.w3.org/Graphics/SVG/1.1/DTD/svg11.dtd"><svg t="1695698189797" class="icon" viewBox="0 0 1024 1024" version="1.1" xmlns="http://www.w3.org/2000/svg" p-id="4416" xmlns:xlink="http://www.w3.org/1999/xlink" width="300" height="300"><path d="M512 64C264.576 64 64 264.576 64 512s200.576 448 448 448 448-200.576 448-448S759.424 64 512 64z m0 96c194.4 0 352 157.6 352 352s-157.6 352-352 352S160 706.4 160 512 317.6 160 512 160z m48 576v-256a32 32 0 0 0-32-32h-32a32 32 0 0 0-32 32v256a32 32 0 0 0 32 32h32a32 32 0 0 0 32-32z m8-416V288a32 32 0 0 0-32-32h-48a32 32 0 0 0-32 32v32a32 32 0 0 0 32 32h48a32 32 0 0 0 32-32z" fill="#333333" p-id="4417"></path></svg>